<svg width="152" height="55" viewBox="0 0 152 55" fill="none" xmlns="http://www.w3.org/2000/svg">
<rect width="152" height="55" fill="#F5F5F5"/>
<g id="Desktop - 8" clip-path="url(#clip0_0_1)">
<rect width="1440" height="7548" transform="translate(-135 -15)" fill="white"/>
<rect id="Rectangle 506" x="-134.809" y="-15" width="1440" height="80" fill="white"/>
<g id="logo_black 1">
<g id="Group">
<path id="Vector" d="M6.0806 45.7696V45.4641C6.29449 45.4029 6.41671 45.3113 6.50838 45.2502C6.56949 45.1891 6.6306 45.0668 6.6306 44.8835C6.6306 44.8224 6.6306 44.7613 6.6306 44.7002C6.6306 44.6391 6.60004 44.5779 6.60004 44.5474L3.30004 35.3502C3.17782 34.9529 3.02504 34.7085 2.90282 34.5557C2.7806 34.403 2.56671 34.3113 2.32227 34.2196V33.9141H6.11115V34.1891C5.89727 34.2502 5.77504 34.3418 5.68338 34.403C5.62227 34.4641 5.56115 34.5557 5.56115 34.678C5.56115 34.7085 5.56115 34.7696 5.59171 34.8307C5.62227 34.8918 5.65282 34.9835 5.68338 35.0752L8.0056 42.1641L10.2973 35.0752C10.2973 35.0446 10.3278 34.9835 10.3278 34.9224C10.3278 34.8613 10.3278 34.8002 10.3278 34.7391C10.3278 34.5863 10.2973 34.4641 10.2362 34.403C10.175 34.3418 10.0223 34.2502 9.80838 34.1891V33.9141H13.9028V34.1891C13.6889 34.2502 13.5667 34.3418 13.475 34.403C13.4139 34.4641 13.3528 34.5557 13.3528 34.678C13.3528 34.7085 13.3528 34.7696 13.3834 34.8307C13.4139 34.8918 13.4445 34.9835 13.475 35.0752L15.7667 41.9807L18.0278 35.0752C18.0278 35.0446 18.0584 34.9835 18.0584 34.9224C18.0584 34.8613 18.0584 34.8002 18.0584 34.7391C18.0584 34.5863 18.0278 34.4641 17.9667 34.403C17.9056 34.3418 17.7528 34.2502 17.5389 34.1891V33.9141H21.2056V34.1891C20.9306 34.2807 20.7473 34.403 20.625 34.5252C20.5028 34.678 20.3806 34.9224 20.2278 35.3196L17.0195 44.5168C17.0195 44.5474 16.9889 44.6085 16.9889 44.6696C16.9889 44.7307 16.9889 44.7918 16.9889 44.8529C16.9889 45.0363 17.0195 45.1279 17.0806 45.2196C17.1417 45.2807 17.2945 45.3724 17.5084 45.4335V45.7391H13.8723V45.4335C14.0862 45.3724 14.2389 45.2807 14.3 45.2196C14.3612 45.1279 14.4223 45.0363 14.4223 44.8529C14.4223 44.8224 14.4223 44.7613 14.3917 44.7002C14.3917 44.6391 14.3612 44.5779 14.3306 44.5168L11.7945 36.6946L9.22782 44.4863C9.22782 44.5168 9.19727 44.5779 9.19727 44.6391C9.19727 44.7002 9.19727 44.7613 9.19727 44.8224C9.19727 44.9752 9.22782 45.0974 9.28893 45.1891C9.35004 45.2502 9.50282 45.3418 9.71671 45.4335V45.7391L6.0806 45.7696Z" fill="#585858"/>
<path id="Vector_2" d="M22.8545 45.0371L23.8323 42.6232L24.1378 42.776C24.1378 42.776 24.1378 42.8065 24.1073 42.8371C24.1073 42.8982 24.0767 42.9593 24.0767 42.9593C24.0767 43.2037 24.4434 43.4787 25.1767 43.7537C25.91 44.0287 26.6434 44.1815 27.4073 44.1815C28.1712 44.1815 28.8128 44.0593 29.2712 43.8454C29.7295 43.6315 29.9434 43.326 29.9434 42.9287C29.9434 42.3787 29.1795 42.0732 27.6212 41.9815C27.01 41.951 26.5212 41.9204 26.1545 41.8898C25.085 41.7982 24.2906 41.5232 23.7712 41.0648C23.2517 40.6065 22.9767 39.9648 22.9767 39.1398C22.9767 38.1621 23.3739 37.3371 24.1378 36.7565C24.9017 36.176 25.9712 35.8398 27.2545 35.8398C28.1406 35.8398 29.0267 36.0232 29.9128 36.3898C30.0656 36.451 30.1573 36.4815 30.1878 36.4815C30.2795 36.4815 30.4628 36.5426 30.7073 36.6954C30.9823 36.8482 31.1656 36.9093 31.3184 36.9093C31.3489 36.9093 31.3795 36.8787 31.4406 36.8482C31.5017 36.8176 31.5628 36.7871 31.6239 36.726L31.8684 36.8482L30.7684 39.2926L30.4628 39.1093C30.4628 39.1093 30.4628 39.0787 30.4934 39.0787C30.4934 39.0787 30.4934 39.0482 30.4934 38.9871C30.4934 38.7121 30.1573 38.4065 29.4545 38.0704C28.7517 37.7343 28.0489 37.5815 27.3156 37.5815C26.6434 37.5815 26.0934 37.6732 25.6656 37.8871C25.2378 38.101 25.0239 38.3454 25.0239 38.651C25.0239 39.1398 25.635 39.4148 26.8267 39.476C27.7434 39.5371 28.4767 39.5982 29.0573 39.7204C30.035 39.9037 30.7989 40.2398 31.2878 40.7287C31.7767 41.2176 32.0212 41.8287 32.0212 42.5926C32.0212 43.5704 31.5934 44.3648 30.7378 44.976C29.8823 45.5871 28.7823 45.8926 27.4073 45.8926C26.1239 45.8926 24.8712 45.6176 23.71 45.0371C23.4962 44.9148 23.3434 44.8843 23.3128 44.8843C23.2517 44.8843 23.1906 44.9148 23.16 44.9148C23.1295 44.9454 23.0989 44.976 23.0684 45.0371H22.8545Z" fill="#585858"/>
<path id="Vector_3" d="M45.2529 41.6755L45.4668 41.5227L46.9946 44.0588L46.7501 44.2116C46.6585 44.1505 46.5974 44.0894 46.5668 44.0588C46.5362 44.0283 46.4751 44.0283 46.4446 44.0283C46.3529 44.0283 46.139 44.1505 45.7724 44.3949C44.0918 45.4644 42.4724 45.9838 40.914 45.9838C39.0807 45.9838 37.5529 45.4033 36.3612 44.2422C35.139 43.081 34.5585 41.6144 34.5585 39.8421C34.5585 38.0394 35.1696 36.5727 36.3918 35.4116C37.614 34.2505 39.2335 33.6699 41.189 33.6699C42.1974 33.6699 43.2057 33.8533 44.2446 34.1894C45.2835 34.556 45.8029 34.7088 45.864 34.7088C45.9557 34.7088 46.0474 34.6783 46.139 34.6783C46.2307 34.6783 46.3224 34.6477 46.4446 34.6477L46.6585 34.8005L45.1001 37.4894L44.8557 37.3366C44.8557 37.3366 44.8557 37.306 44.8862 37.306C44.8862 37.306 44.8862 37.2755 44.8862 37.2449C44.8862 36.9088 44.489 36.5727 43.664 36.206C42.8696 35.8394 42.014 35.6866 41.0974 35.6866C39.8751 35.6866 38.8668 36.0533 38.0724 36.8171C37.2779 37.581 36.8807 38.5283 36.8807 39.6894C36.8807 40.9116 37.2779 41.9199 38.0724 42.6533C38.8668 43.4172 39.9057 43.7838 41.1585 43.7838C42.1057 43.7838 43.0224 43.5699 43.9085 43.1421C44.8251 42.7144 45.2835 42.3477 45.2835 42.0727C45.2835 42.0116 45.2835 41.9505 45.2529 41.8894C45.2835 41.8283 45.2835 41.7366 45.2529 41.6755Z" fill="#585858"/>
<path id="Vector_4" d="M57.0769 36.9726C57.0769 36.7587 57.0464 36.6059 56.9853 36.5143C56.9242 36.4226 56.7714 36.3615 56.5881 36.3309V36.0254H59.7964V36.3309C59.6131 36.3615 59.4603 36.4226 59.3992 36.5143C59.3381 36.6059 59.3075 36.7587 59.2769 36.9726L59.2464 42.106C59.2464 43.5115 58.8797 44.4893 58.1769 45.0698C57.4742 45.6504 56.2519 45.9254 54.5714 45.9254C52.9214 45.9254 51.7297 45.6198 50.9964 45.0393C50.2936 44.4587 49.9269 43.481 49.9269 42.0754V36.9726C49.9269 36.7587 49.8964 36.6059 49.8047 36.5143C49.7436 36.4226 49.5908 36.3615 49.377 36.3309V36.0254H52.5853V36.3309C52.402 36.3615 52.2492 36.4532 52.1881 36.5143C52.127 36.6059 52.0964 36.7587 52.0964 36.9726V41.6782C52.0964 42.5337 52.2797 43.1448 52.6769 43.5115C53.0742 43.8782 53.6853 44.0615 54.5714 44.0615C55.4575 44.0615 56.0992 43.8782 56.4658 43.481C56.8325 43.0837 57.0464 42.4421 57.0464 41.556V36.9726H57.0769Z" fill="#585858"/>
<path id="Vector_5" d="M69.4227 36.0254C70.4615 36.0254 71.2865 36.2393 71.8671 36.6976C72.4477 37.1559 72.7227 37.7671 72.7227 38.5309C72.7227 38.9587 72.631 39.3559 72.4171 39.6615C72.2032 39.9671 71.8977 40.2726 71.4699 40.5171C71.9893 40.7921 72.3865 41.1282 72.631 41.5254C72.8754 41.9226 72.9977 42.3809 72.9977 42.9004C72.9977 43.7865 72.6615 44.4893 72.0199 44.9782C71.3477 45.4671 70.431 45.7115 69.2088 45.7115H63.0977V45.406C63.281 45.3754 63.4338 45.2837 63.4949 45.2226C63.556 45.131 63.5865 44.9782 63.5865 44.7643V36.9726C63.5865 36.7587 63.556 36.6059 63.4949 36.5143C63.4338 36.4226 63.281 36.3615 63.0977 36.3309V36.0254H69.4227ZM68.781 37.7365H65.8171V39.7532H69.0254C69.5754 39.7532 70.0032 39.6615 70.2477 39.5087C70.5227 39.3559 70.6449 39.0809 70.6449 38.7448C70.6449 38.3782 70.4921 38.1337 70.2171 37.9809C69.9421 37.7976 69.4532 37.7365 68.781 37.7365ZM68.5977 41.4337H65.7865V44.0615H68.5365C69.4532 44.0615 70.0643 43.9698 70.431 43.756C70.7977 43.5421 70.9504 43.206 70.9504 42.7171C70.9504 42.2587 70.7671 41.9226 70.4004 41.7087C70.0338 41.5254 69.4227 41.4337 68.5977 41.4337Z" fill="#585858"/>
<path id="Vector_6" d="M84.4864 36.0234C84.7002 36.0234 84.853 35.9928 84.9141 35.9317C84.9752 35.8706 85.0364 35.7178 85.0975 35.5039H85.3725V38.5289H85.0975C85.0669 38.315 85.0058 38.1622 84.9141 38.1011C84.8225 38.04 84.7002 37.9789 84.4864 37.9789H78.9558V39.9345H82.3475C82.5613 39.9345 82.7141 39.9039 82.7752 39.8428C82.8363 39.7817 82.8975 39.6289 82.9586 39.415H83.2336V42.1956H82.9586C82.928 41.9817 82.8669 41.8289 82.7752 41.7678C82.6836 41.7067 82.5613 41.6456 82.3475 41.6456H78.9558V43.8456H84.7002C84.9141 43.8456 85.0669 43.815 85.128 43.7539C85.1891 43.6928 85.2503 43.54 85.3114 43.3261H85.5864V46.3511H85.3114C85.2808 46.1372 85.2197 45.9845 85.128 45.8928C85.0364 45.8011 84.9141 45.7706 84.7002 45.7706H76.2363V45.465C76.4502 45.4345 76.5724 45.3428 76.6641 45.2511C76.7252 45.1595 76.7863 45.0067 76.7863 44.7928V36.9706C76.7863 36.7567 76.7558 36.6039 76.6641 36.5122C76.603 36.4206 76.4502 36.3595 76.2363 36.3289V36.0234H84.4864Z" fill="#585858"/>
<path id="Vector_7" d="M95.6088 36.0229C95.3949 36.0229 95.2421 36.0534 95.181 36.1145C95.1199 36.1757 95.0588 36.3284 94.9977 36.5423H94.7227V33.334H94.9977C95.0588 33.5479 95.1199 33.7007 95.181 33.7923C95.2727 33.884 95.3949 33.9145 95.6088 33.9145H104.806C105.02 33.9145 105.173 33.884 105.234 33.7923C105.295 33.7312 105.356 33.5784 105.417 33.334H105.692V36.5423H105.417C105.387 36.3284 105.325 36.1757 105.234 36.084C105.142 35.9923 105.02 35.9618 104.806 35.9618H101.384V44.7618C101.384 44.9757 101.414 45.1284 101.475 45.2201C101.537 45.3118 101.689 45.3729 101.873 45.4034V45.709H98.481V45.4034C98.6949 45.3423 98.8171 45.2812 98.8782 45.1895C98.9393 45.0979 98.9699 44.9451 99.0004 44.7312V35.9312H95.6088V36.0229Z" fill="#0095DA"/>
<path id="Vector_8" d="M116.172 36.0234C116.386 36.0234 116.539 35.9928 116.6 35.9317C116.661 35.8706 116.722 35.7178 116.783 35.5039H117.058V38.5289H116.783C116.752 38.315 116.691 38.1622 116.6 38.1011C116.508 38.04 116.386 37.9789 116.172 37.9789H110.641V39.9345H114.033C114.247 39.9345 114.4 39.9039 114.461 39.8428C114.522 39.7817 114.583 39.6289 114.644 39.415H114.919V42.1956H114.644C114.614 41.9817 114.552 41.8289 114.461 41.7678C114.369 41.7067 114.247 41.6456 114.033 41.6456H110.641V43.8456H116.386C116.6 43.8456 116.752 43.815 116.814 43.7539C116.875 43.6928 116.936 43.54 116.997 43.3261H117.272V46.3511H116.997C116.966 46.1372 116.905 45.9845 116.814 45.8928C116.722 45.8011 116.6 45.7706 116.386 45.7706H107.922V45.465C108.136 45.4345 108.258 45.3428 108.35 45.2511C108.411 45.1595 108.472 45.0067 108.472 44.7928V36.9706C108.472 36.7567 108.441 36.6039 108.35 36.5122C108.289 36.4206 108.136 36.3595 107.922 36.3289V36.0234H116.172Z" fill="#0095DA"/>
<path id="Vector_9" d="M128.73 39.0793L128.516 38.9571V38.9265C128.516 38.9265 128.516 38.896 128.516 38.8654C128.516 38.621 128.18 38.346 127.538 38.071C126.896 37.796 126.224 37.6432 125.521 37.6432C124.513 37.6432 123.719 37.9487 123.107 38.5293C122.496 39.1404 122.191 39.9043 122.191 40.8821C122.191 41.8293 122.496 42.6237 123.107 43.2043C123.719 43.7849 124.544 44.0599 125.552 44.0599C126.316 44.0599 127.08 43.8765 127.782 43.5404C128.485 43.2043 128.852 42.8987 128.852 42.6849C128.852 42.6849 128.852 42.6237 128.821 42.5626C128.821 42.5015 128.791 42.4404 128.791 42.3793L129.035 42.2571L130.41 44.396L130.196 44.5182C130.135 44.4571 130.074 44.4265 130.044 44.4265C130.013 44.396 129.982 44.396 129.952 44.396C129.891 44.396 129.677 44.4876 129.341 44.7015C127.935 45.5571 126.591 45.9849 125.277 45.9849C123.749 45.9849 122.466 45.496 121.457 44.5182C120.449 43.5404 119.93 42.3487 119.93 40.8821C119.93 39.3849 120.449 38.1626 121.488 37.2154C122.527 36.2682 123.871 35.7793 125.521 35.7793C126.346 35.7793 127.202 35.9321 128.088 36.2071C128.944 36.5126 129.432 36.6349 129.494 36.6349C129.555 36.6349 129.646 36.6349 129.707 36.6043C129.769 36.6043 129.86 36.5737 129.952 36.5432L130.196 36.6654L128.73 39.0793Z" fill="#0095DA"/>
<path id="Vector_10" d="M135.27 44.8254C135.27 45.0393 135.3 45.1921 135.392 45.2837C135.453 45.3754 135.606 45.4365 135.82 45.4671V45.7726H132.611V45.4671C132.795 45.4365 132.947 45.3448 133.009 45.2837C133.07 45.2226 133.1 45.0393 133.1 44.8254V36.9726C133.1 36.7587 133.07 36.6059 133.009 36.5143C132.947 36.4226 132.795 36.3615 132.611 36.3309V36.0254H135.82V36.3309C135.606 36.3615 135.484 36.4532 135.392 36.5143C135.331 36.6059 135.27 36.7587 135.27 36.9726V39.6004H140.311V36.9726C140.311 36.7587 140.281 36.6059 140.189 36.5143C140.128 36.4226 139.975 36.3615 139.761 36.3309V36.0254H143V36.3309C142.786 36.3615 142.664 36.4532 142.603 36.5143C142.542 36.6059 142.511 36.7587 142.511 36.9726V44.7948C142.511 45.0087 142.542 45.1615 142.603 45.2532C142.664 45.3448 142.817 45.4059 143 45.4365V45.7421H139.792V45.4365C140.006 45.4059 140.159 45.3143 140.22 45.2532C140.281 45.1615 140.342 45.0087 140.342 44.7948V41.4948H135.3L135.27 44.8254Z" fill="#0095DA"/>
<path id="&#194;&#174;" d="M146.236 36.075V32.8462H147.815C148.019 32.8462 148.206 32.8885 148.375 32.9731C148.547 33.0577 148.683 33.1802 148.782 33.3406C148.884 33.4981 148.935 33.6906 148.935 33.9181C148.935 34.1456 148.883 34.3396 148.778 34.5C148.673 34.6604 148.533 34.7829 148.358 34.8675C148.182 34.9492 147.989 34.99 147.776 34.99H146.695V34.3819H147.601C147.723 34.3819 147.828 34.3425 147.916 34.2638C148.006 34.185 148.051 34.0683 148.051 33.9137C148.051 33.7533 148.006 33.6396 147.916 33.5725C147.828 33.5025 147.725 33.4675 147.605 33.4675H147.076V36.075H146.236ZM148.296 34.5831L149.031 36.075H148.113L147.426 34.5831H148.296ZM147.5 38C147.016 38 146.562 37.9096 146.139 37.7287C145.716 37.5479 145.345 37.2971 145.024 36.9763C144.703 36.6554 144.452 36.2835 144.271 35.8606C144.09 35.4377 144 34.9842 144 34.5C144 34.0158 144.09 33.5623 144.271 33.1394C144.452 32.7165 144.703 32.3446 145.024 32.0238C145.345 31.7029 145.716 31.4521 146.139 31.2713C146.562 31.0904 147.016 31 147.5 31C147.984 31 148.438 31.0904 148.861 31.2713C149.284 31.4521 149.655 31.7029 149.976 32.0238C150.297 32.3446 150.548 32.7165 150.729 33.1394C150.91 33.5623 151 34.0158 151 34.5C151 34.9842 150.91 35.4377 150.729 35.8606C150.548 36.2835 150.297 36.6554 149.976 36.9763C149.655 37.2971 149.284 37.5479 148.861 37.7287C148.438 37.9096 147.984 38 147.5 38ZM147.5 37.0769C147.978 37.0769 148.411 36.9617 148.799 36.7313C149.19 36.4979 149.501 36.1873 149.731 35.7994C149.962 35.4085 150.077 34.9754 150.077 34.5C150.077 34.0246 149.96 33.5929 149.727 33.205C149.496 32.8142 149.186 32.5035 148.795 32.2731C148.407 32.0398 147.975 31.9231 147.5 31.9231C147.028 31.9231 146.596 32.0398 146.205 32.2731C145.814 32.5035 145.504 32.8142 145.273 33.205C145.043 33.5929 144.927 34.0246 144.927 34.5C144.927 34.9754 145.043 35.4085 145.273 35.7994C145.504 36.1873 145.814 36.4979 146.205 36.7313C146.596 36.9617 147.028 37.0769 147.5 37.0769Z" fill="#585858"/>
</g>
<g id="Group_2">
<path id="Vector_11" d="M42.1356 25.1154L49.194 12.9543L49.5301 12.4043H50.1717H64.1662H64.8079L65.1134 12.9543L72.1717 24.9932L72.5079 25.5432L72.2023 26.1237L68.719 32.1737H66.1829L69.9717 25.5737L63.5551 14.6349H50.7829L44.3662 25.6654L48.2162 32.1737H45.6495L42.1356 26.246L41.8301 25.696L42.1356 25.1154Z" fill="#0095DA"/>
<path id="Vector_12" d="M0.336111 25.1154L7.39444 12.9543L7.7 12.4043H8.34167H22.3361H22.9778L23.2833 12.9543L30.3722 24.9932L30.6778 25.5432L30.3722 26.1237L26.8889 32.1737H24.3528L28.1417 25.5737L21.725 14.6349H8.98333L2.56667 25.6654L6.38611 32.1737H3.81944L0.336111 26.246L0 25.696L0.336111 25.1154Z" fill="#0095DA"/>
<path id="Vector_13" d="M21.2365 12.7111L28.2948 0.55L28.6309 0H29.2421H43.2671H43.8782L44.2143 0.55L51.2726 12.5889L51.6087 13.1389L51.2726 13.6889L47.8198 19.7694H45.2532L49.0421 13.1389L42.6254 2.2H29.8837L23.4671 13.2611L27.3171 19.7694H24.7504L21.2365 13.8417L20.9004 13.2611L21.2365 12.7111Z" fill="#0095DA"/>
<path id="Vector_14" d="M21.2365 13.781L28.2948 25.9421L28.6309 26.4921H29.2421H43.2671H43.8782L44.2143 25.9421L51.2726 13.9032L51.6087 13.3532L51.2726 12.8032L47.8198 6.72266H45.2532L49.0421 13.3532L42.6254 24.2921H29.8837L23.4671 13.231L27.3171 6.72266H24.7504L21.2365 12.681L20.9004 13.231L21.2365 13.781Z" fill="#0095DA"/>
</g>
</g>
</g>
<defs>
<clipPath id="clip0_0_1">
<rect width="1440" height="7548" fill="white" transform="translate(-135 -15)"/>
</clipPath>
</defs>
</svg>
